<svg version="1.1"
     baseProfile="full"
     width="1000" height="1000"
     xmlns="http://www.w3.org/2000/svg">
<line x1="500.0" y1="950.0" x2="500.00000000000006" y2="350.0" stroke="black" stroke-width="0.8"/>
<line x1="500.00000000000006" y1="350.0" x2="754.2857414027826" y2="233.38613296762463" stroke="black" stroke-width="0.8"/>
<line x1="754.2857414027826" y1="233.38613296762463" x2="801.3315301418849" y2="276.81250404850385" stroke="black" stroke-width="0.8"/>
<line x1="801.3315301418849" y1="276.81250404850385" x2="818.6797433454378" y2="293.8253101169464" stroke="black" stroke-width="0.8"/>
<circle cx="818.6797433454378" cy="293.8253101169464" r="5" fill="green"/>
<line x1="500.0" y1="950.0" x2="500.00000000000006" y2="350.0" stroke="black" stroke-width="0.8"/>
<line x1="500.00000000000006" y1="350.0" x2="349.40253182907463" y2="-257.9624429520494" stroke="black" stroke-width="0.8"/>
<line x1="349.40253182907463" y1="-257.9624429520494" x2="480.0293666824002" y2="-1113.4475085346794" stroke="black" stroke-width="0.8"/>
<line x1="480.0293666824002" y1="-1113.4475085346794" x2="701.6327453880965" y2="-1397.2463096496672" stroke="black" stroke-width="0.8"/>
<line x1="701.6327453880965" y1="-1397.2463096496672" x2="1107.987604076688" y2="-1395.7319595704396" stroke="black" stroke-width="0.8"/>
<line x1="1107.987604076688" y1="-1395.7319595704396" x2="1244.5476448597474" y2="-1235.341662022981" stroke="black" stroke-width="0.8"/>
<line x1="1244.5476448597474" y1="-1235.341662022981" x2="1256.1602635079294" y2="-1075.858541489263" stroke="black" stroke-width="0.8"/>
<line x1="1256.1602635079294" y1="-1075.858541489263" x2="1258.7450651195065" y2="-995.032125833214" stroke="black" stroke-width="0.8"/>
<line x1="1258.7450651195065" y1="-995.032125833214" x2="1187.6151687161478" y2="-967.5653860043153" stroke="black" stroke-width="0.8"/>
<line x1="1187.6151687161478" y1="-967.5653860043153" x2="1162.660144935185" y2="-968.5332134845028" stroke="black" stroke-width="0.8"/>
<circle cx="1162.660144935185" cy="-968.5332134845028" r="5" fill="green"/>
</svg>